<svg width="24" height="24" viewBox="0 0 24 24" fill="none" xmlns="http://www.w3.org/2000/svg">
<path d="M17.6655 1.99566H20.3355C20.9015 1.98565 21.4514 2.1838 21.8809 2.55248C22.3104 2.92116 22.5896 3.43472 22.6655 3.99566V10.9957C22.5896 11.5566 22.3104 12.0702 21.8809 12.4388C21.4514 12.8075 20.9015 13.0057 20.3355 12.9957H17.6655M10.6655 14.9957V18.9957C10.6655 19.7913 10.9816 20.5544 11.5442 21.117C12.1068 21.6796 12.8698 21.9957 13.6655 21.9957L17.6655 12.9957V1.99566H6.3855C5.90317 1.99021 5.43512 2.15926 5.06759 2.47166C4.70006 2.78405 4.45782 3.21876 4.3855 3.69566L3.0055 12.6957C2.96199 12.9823 2.98132 13.275 3.06216 13.5534C3.14299 13.8318 3.28339 14.0894 3.47364 14.3081C3.66388 14.5269 3.89942 14.7017 4.16393 14.8204C4.42843 14.9392 4.71559 14.9989 5.0055 14.9957H10.6655Z" stroke="black" stroke-width="2" stroke-linecap="round" stroke-linejoin="round"/>
</svg>
